<svg width="180" height="96" viewBox="0 0 180 96" fill="none" xmlns="http://www.w3.org/2000/svg">
<path d="M158.815 46.4123C158.862 46.5231 158.862 46.5969 158.862 46.7077C158.862 46.5969 158.815 46.5231 158.815 46.4123ZM90.0001 27.2492C51.5539 27.2492 20.7693 36.48 20.7693 48C20.7693 59.4831 51.8308 68.7508 90.0001 68.7508C128.169 68.7508 159.231 59.4462 159.231 48C159.231 36.5539 128.169 27.2492 90.0001 27.2492Z" fill="#D3D2D2"/>
<path d="M21.8308 48C21.8308 59.0031 52.3385 67.9384 90 67.9384C127.662 67.9384 158.169 59.04 158.169 48C158.169 36.9969 127.662 28.0615 90 28.0615C52.3385 28.0615 21.8308 36.9969 21.8308 48Z" fill="url(#paint0_radial_1076_48)"/>
<path d="M26.9539 48C26.9539 48.7384 27.1385 49.4769 27.5077 50.2154C27.3692 49.7354 27.2769 49.2554 27.2769 48.7754C27.2769 39.6554 55.4769 32.2708 90.3231 32.2708C122.354 32.2708 148.8 38.5108 152.815 46.6338C150.138 38.1046 123.046 31.4215 90 31.4215C55.2 31.3846 26.9539 38.8431 26.9539 48Z" fill="url(#paint1_linear_1076_48)"/>
<path d="M155.308 48C155.308 58.0431 126.046 66.2031 90.0001 66.2031C57.877 66.2031 31.2001 59.7415 25.7078 51.2492C29.9078 60.1108 57.277 66.9415 90.4616 66.9415C126.554 66.9415 155.769 58.8554 155.769 48.9231C155.769 47.9262 155.446 46.9292 154.892 45.9692C155.169 46.5969 155.308 47.2985 155.308 48Z" fill="url(#paint2_linear_1076_48)"/>
<path d="M102.185 49.7723C100.708 50.9908 100.615 52.5785 101.585 53.28C101.908 53.5385 102.323 53.6492 102.738 53.6862C102.092 53.0585 101.815 51.8031 102.6 50.8431C102.461 50.5477 102.415 50.2154 102.508 49.8831C102.508 49.8092 102.461 49.7354 102.369 49.7354C102.277 49.6985 102.231 49.7354 102.185 49.7723Z" fill="url(#paint3_linear_1076_48)"/>
<path d="M117.277 52.3569C117.277 52.5415 117.369 52.8739 117.415 53.1323C117.507 53.0215 117.553 52.9108 117.646 52.7631C117.692 52.6523 117.692 52.6523 117.6 52.6154C117.461 52.5785 117.277 52.4677 117.277 52.3939C117.231 52.3939 117.231 52.3939 117.277 52.3569Z" fill="url(#paint4_linear_1076_48)"/>
<path d="M119.031 48.3692C119.538 48.7385 119.815 49.1815 119.862 49.6246C119.862 49.8092 120.092 49.8462 120.231 49.6615C120.277 49.6246 120.323 49.5508 120.369 49.4769C120.323 49.44 120.277 49.4031 120.231 49.3292C120.046 49.1446 119.538 48.7385 119.031 48.3692Z" fill="url(#paint5_linear_1076_48)"/>
<path d="M98.7693 47.6308C99.1385 48.0738 99.3231 48.6646 99.3231 49.44C99.3231 49.6246 99.5078 49.6246 99.6001 49.4769C99.6462 49.4031 99.7385 49.3292 99.7847 49.2554C99.5539 48.5538 99.0924 47.8892 98.7693 47.6308Z" fill="url(#paint6_linear_1076_48)"/>
<path d="M112.292 51.6923C110.908 53.0215 110.169 54.3877 110.169 55.7169C110.169 56.1969 110.4 56.7877 110.908 56.9723C111.092 57.0462 111.231 57.0831 111.415 57.12C111.369 56.9354 111.323 56.7508 111.323 56.6031C111.323 55.2369 111.831 53.8708 113.215 52.5046C114.877 50.88 116.631 50.0677 117.831 50.5108C117.785 50.1415 117.554 49.8462 117.046 49.6616C116.815 49.5877 116.585 49.5508 116.308 49.5508C115.108 49.5508 113.631 50.3631 112.292 51.6923Z" fill="url(#paint7_linear_1076_48)"/>
<path d="M84.877 48.8492C83.0308 49.4031 81.1847 50.2892 79.8924 51.6554C78.4154 53.2062 78.0462 55.0892 79.0154 56.1969C79.2462 56.4554 79.5231 56.64 79.8462 56.7508C79.3385 55.4585 79.7077 53.7231 80.9539 52.3939C82.2462 51.0277 83.677 50.5108 85.2924 49.92C85.5231 49.8462 85.5231 49.7354 85.477 49.5877C85.3847 49.3292 85.2 48.6646 85.1077 48.5169C85.1539 48.7016 85.1077 48.8123 84.877 48.8492Z" fill="url(#paint8_linear_1076_48)"/>
<path d="M98.7231 53.0215C97.0154 55.1262 95.4001 57.1569 93.6924 59.2985C93.6001 59.4092 93.5078 59.4462 93.3693 59.4831H90.0001C89.8616 59.4831 89.8154 59.4462 89.7693 59.3723C89.8616 59.7046 90.0001 60.2954 90.0462 60.4431C90.0924 60.5538 90.1847 60.5908 90.277 60.5908H94.1077C94.2462 60.5908 94.3847 60.5169 94.4308 60.4062C96.0001 58.4492 97.6616 56.3446 99.2308 54.3877C99.6001 55.3846 99.7385 55.8277 100.431 56.3077C101.077 56.7877 101.677 56.8985 102.6 56.8985C103.431 56.8985 104.215 56.64 105.185 56.3077C105.554 56.1969 105.831 56.0492 106.108 55.9015C106.108 55.5323 106.154 55.1631 106.246 54.8308C106.246 54.7938 106.2 54.5723 105.969 54.6831C105.508 54.9415 104.954 55.2 104.215 55.4215C103.339 55.68 102.923 55.7908 102.092 55.7908C101.077 55.7908 100.154 55.4215 99.5078 54.6092C99.1385 54.1662 99.0001 53.5015 98.9539 53.0215C98.9539 52.9846 98.9077 52.9477 98.8616 52.9477C98.8154 52.9846 98.7693 52.9846 98.7231 53.0215Z" fill="url(#paint9_linear_1076_48)"/>
<path d="M128.446 54.1292C126.785 55.7538 124.985 57.2677 123.231 58.3385C120.508 60.0369 117.831 60.4431 116.492 59.3723C115.985 58.9662 115.708 58.4123 115.708 57.8954C115.708 57.6369 115.523 57.6369 115.385 57.7477C113.769 59.0031 111 60.4062 108.461 59.4092C107.215 58.8923 106.523 57.9692 106.246 56.9354C106.385 57.6738 106.615 58.7446 107.031 59.4092C107.308 59.8523 107.954 60.3692 108.369 60.5169C110.631 61.4031 113.815 60.4062 115.892 58.8185C115.892 58.7815 115.938 58.7815 115.938 58.7815C116.031 59.0769 116.169 59.4092 116.169 59.4462C116.308 59.8154 116.538 60.1477 116.723 60.3323C118.154 61.6246 121.108 61.0338 124.246 59.1138C126 58.0431 127.292 56.9723 128.861 55.4954C128.908 55.4215 128.908 55.3477 128.908 55.2C128.815 54.8677 128.677 54.3138 128.585 54.0185C128.492 54.0185 128.492 54.0923 128.446 54.1292ZM106.2 56.8615C106.2 56.8615 106.2 56.8985 106.2 56.8615V56.8615Z" fill="url(#paint10_linear_1076_48)"/>
<path d="M106.985 49.6615C106.846 50.4738 106.292 51.1754 105.369 51.5446C104.585 51.84 103.662 51.8031 103.015 51.3231C102.831 51.1754 102.692 50.9908 102.554 50.8062C102.739 51.3969 102.877 51.84 103.062 52.0985C103.662 52.8369 104.723 53.0215 105.877 52.5046C106.708 52.1354 107.446 51.36 107.354 50.1415C107.308 49.5138 107.077 48.8862 106.708 48.3692C106.985 48.7754 107.077 49.2185 106.985 49.6615Z" fill="url(#paint11_linear_1076_48)"/>
<path d="M130.661 42.0554C130.154 42.7938 120 55.1261 119.354 56.4185C119.169 56.8246 119.123 57.12 119.354 57.3415C119.585 57.5631 119.861 57.6369 120.231 57.6369C120.277 57.4892 120.323 57.3046 120.415 57.12C121.061 55.8277 130.569 44.3077 131.077 43.5692C131.123 43.4954 131.123 43.4215 131.077 43.3846C131.031 43.2738 130.708 42.0554 130.708 41.9446C130.708 41.9815 130.708 42.0185 130.661 42.0554Z" fill="url(#paint12_linear_1076_48)"/>
<path d="M88.5693 47.8154L88.6616 47.8892C89.2616 48.6277 89.5847 49.6246 89.6309 50.6954C89.677 50.9169 89.7693 50.9169 89.9078 50.8062C90.0463 50.6954 90.1386 50.5846 90.277 50.5108C90.0924 49.9569 89.8155 49.44 89.5386 48.96C89.4463 48.7385 88.9847 48.1108 88.5693 47.8154Z" fill="url(#paint13_linear_1076_48)"/>
<path d="M93.7385 50.2523C91.5692 51.5815 89.7231 53.6492 88.8 54.5723C88.2462 55.1262 87.7385 55.9015 86.3077 57.1569C84.0462 59.1139 81.0462 60.2585 78.1846 59.4462C76.6154 59.04 75.4615 58.0062 75.0462 56.7508C74.9538 56.4923 74.7692 56.4554 74.6308 56.6031C74.1692 57.0831 73.2 57.7477 72.4154 58.1908C72.3231 58.2277 72.0923 58.3385 71.9077 58.2646C71.7231 58.1908 71.1692 57.5262 71.0308 57.3415C71.0308 57.3046 70.9846 57.3046 70.9846 57.2677C71.1692 58.08 71.2154 58.1908 71.4923 58.56C71.8154 58.9662 72.1385 59.2615 72.1846 59.2985C72.3692 59.3723 72.5538 59.2985 72.6462 59.2615C73.2462 59.0031 74.4462 58.2646 75 57.7477C75.1385 57.6369 75.3231 57.7108 75.3692 57.8215C75.6 58.3754 75.9231 58.7815 76.2462 59.2615C76.6154 59.7785 77.4 60.2954 78.4154 60.5169C79.7077 60.8123 81.1385 60.8492 82.9846 60.2954C84.4615 59.8523 86.0308 58.9292 87.2308 57.8585C88.6615 56.6031 89.1692 55.8277 89.7231 55.2739C90.6462 54.3508 92.1231 52.7262 94.1538 51.3231C94.8462 50.8431 95.6308 50.5108 96.1385 50.6585C96.4154 50.0677 96.2769 49.7354 96 49.5508C95.9077 49.5139 95.7692 49.4769 95.6308 49.4769C95.0769 49.5508 94.3846 49.8831 93.7385 50.2523Z" fill="url(#paint14_linear_1076_48)"/>
<path d="M57.3692 48.5908C56.123 49.1077 54.6461 49.9569 53.9076 51.1385C53.3076 52.0985 53.2153 53.2431 54.0923 54.3508C54.1846 54.4246 54.2307 54.5354 54.323 54.6092C54.0461 53.6862 54.3692 52.7262 54.7846 51.9877C55.523 50.8062 56.5384 50.2523 57.5538 49.7354C57.9692 49.5139 58.1999 49.2923 57.923 48.7385C57.8307 48.5908 57.7846 48.2954 57.7384 48.0369C57.7846 48.2585 57.6461 48.48 57.3692 48.5908Z" fill="url(#paint15_linear_1076_48)"/>
<path d="M66.6462 36.8123C63.0924 37.8831 61.5231 40.1354 62.2616 41.6492C62.4 41.9446 62.6308 42.1662 62.9539 42.3138C62.7231 40.9108 64.0154 38.6585 67.4308 37.7354C71.9077 36.5538 76.8924 37.2923 80.9077 37.9938C81.4616 37.6985 81.9693 37.5138 82.4308 37.2923C82.6616 37.1815 82.3847 37.0708 82.3385 37.0708C79.1539 36.5908 75.8308 36 72.6 36C70.5693 36 68.5847 36.2215 66.6462 36.8123Z" fill="url(#paint16_linear_1076_48)"/>
<path d="M81.5539 45.2677C79.9385 45.3415 77.4462 45.5262 75.7385 45.7108C75.3231 45.7477 75.277 45.8215 75.1847 45.9323C72.4616 49.5138 69.6 53.3538 66.4154 55.9385C63 58.7077 60.1847 59.4462 57.1847 59.4462C53.7231 59.4831 50.6308 57.8954 49.8462 55.1262C50.2616 56.6769 51.5077 58.5231 52.9385 59.3354C54.4154 60.1477 55.8462 60.4431 57.5077 60.4431C60.9231 60.48 64.0616 59.3723 67.3847 56.6769C70.5693 54.0923 73.3385 50.4738 76.0154 46.8923C76.1077 46.7815 76.2 46.7077 76.6616 46.6708C78.3693 46.4862 79.8923 46.4123 81.4154 46.3015C81.877 46.2646 82.2 46.2277 82.3847 46.3754C82.9385 46.8185 83.5385 47.2246 84 47.4092C84.277 47.4092 84.5077 47.4462 84.6923 47.5938C84.877 47.5569 85.0154 47.4831 85.1539 47.4092C85.3385 47.2615 85.3385 47.0769 85.3385 46.9292C85.2923 46.6338 85.1539 46.0431 85.0616 45.8954C85.1539 46.0062 85.1077 46.1908 84.9231 46.3385C84.7847 46.4492 84.6 46.56 84.3693 46.56C84.1847 46.56 84.0462 46.4862 83.8154 46.4123C83.3077 46.1908 82.6616 45.8215 82.2462 45.4154C82.1539 45.3046 82.0616 45.2677 81.877 45.2677C81.6923 45.2308 81.6462 45.2677 81.5539 45.2677Z" fill="url(#paint17_linear_1076_48)"/>
<path d="M66.8769 47.4092C66.5077 47.6308 65.9538 47.5938 65.723 47.2985C65.6307 47.1877 65.5846 47.0769 65.5846 47.0031C65.5384 47.4831 65.7692 48.1477 65.9538 48.3692C66.1384 48.6277 66.7384 48.7385 67.2 48.48C68.2154 47.8523 69.1846 47.52 70.2 47.3354C70.4769 47.04 70.7538 46.7077 71.0769 46.3385C71.123 46.3015 71.123 46.2646 71.0769 46.2646C71.0769 46.2277 71.0307 46.2277 70.9384 46.2277C69.5077 46.2646 68.1692 46.6338 66.8769 47.4092Z" fill="url(#paint18_linear_1076_48)"/>
<path d="M110.077 36.0369C110.077 36.0736 110.124 36.0736 110.124 36.1102C110.124 36.0736 110.124 36.0369 110.077 36.0369Z" fill="url(#paint19_linear_1076_48)"/>
<path d="M110.262 36.5538C110.215 37.3292 109.431 38.1046 107.539 38.9169C105.369 39.8769 103.154 40.1354 100.8 40.1723C95.1232 40.2092 89.8155 38.4369 84.3693 37.4769C84.3693 37.6615 84.4155 37.8831 84.2309 38.0308C81.1847 39.84 78.4616 41.6492 76.6155 44.1969C76.5693 44.2708 76.5693 44.3077 76.7078 44.3077C77.2155 44.2708 77.677 44.2708 78.1386 44.2338C79.8001 42.1292 81.6001 40.9477 84.3232 39.3231C84.5078 39.2123 84.7386 39.1015 84.6463 38.6585C90.1386 39.6185 94.2924 41.2431 101.4 41.28C103.523 41.28 106.477 40.7261 108.092 39.9508C109.939 39.0646 110.446 38.4 110.492 37.7354C110.492 37.5138 110.446 37.1815 110.4 37.0338C110.354 36.8123 110.308 36.5169 110.215 36.2954C110.262 36.3323 110.262 36.4431 110.262 36.5538Z" fill="url(#paint20_linear_1076_48)"/>
<path d="M83.8154 41.9077C83.7692 41.9446 83.6769 42.0185 83.5846 42.0554C83.0307 42.4985 82.8923 43.0892 82.9384 43.5323C82.9846 43.7169 83.0769 43.7539 83.1692 43.7169C83.2615 43.7169 83.4 43.68 83.4923 43.6431C83.5384 43.3846 83.6769 43.1631 83.9538 42.9415C84.1846 42.7939 84.4615 42.72 84.6923 42.7569C84.923 42.4246 84.9692 42.0185 84.6923 41.8339C84.6 41.76 84.4615 41.7231 84.2769 41.7231C84.1846 41.76 84 41.7969 83.8154 41.9077Z" fill="url(#paint21_linear_1076_48)"/>
<path d="M85.9845 43.4585C85.4769 44.2708 84.5999 44.6769 83.7692 44.8985C83.7692 44.8985 83.5845 44.9354 83.6307 45.0461C83.6307 45.1938 84.2307 45.4892 84.5999 45.6738C84.6461 45.6738 84.7384 45.6369 84.7384 45.6369C85.1538 45.4892 85.8461 45.1569 86.2615 44.4554C86.5384 44.0123 86.6769 43.6431 86.5384 42.8308C86.4461 42.2769 86.3076 41.76 86.123 41.5385C86.5384 42.1292 86.3999 42.8677 85.9845 43.4585Z" fill="url(#paint22_linear_1076_48)"/>
<path d="M70.8461 39.7292C70.9384 39.9138 70.9384 40.2461 70.7537 40.6154C69.2307 43.4584 66.3691 45.6738 62.8614 45.7846C60.7384 45.8215 59.1691 44.9723 58.4307 43.7169C58.9845 44.6769 60.0922 45.5261 61.0614 46.0061C61.7999 46.3754 62.7691 46.5969 63.8307 46.56C67.4768 46.4492 70.246 44.0492 71.1691 42.0184C71.3999 41.4646 71.2153 40.8738 71.123 40.5046C71.0307 40.32 70.9845 39.9877 70.8461 39.7292Z" fill="url(#paint23_linear_1076_48)"/>
<path d="M158.815 46.4123C158.862 46.5231 158.862 46.5969 158.862 46.7077C158.862 46.5969 158.815 46.5231 158.815 46.4123ZM21.2308 48.2585C21.2308 45.8215 22.5693 43.4215 25.3847 41.1323C35.3077 33.12 61.2462 27.7292 89.8616 27.6185C127.8 27.5077 158.677 36.5539 158.769 47.7785C158.769 50.2154 157.385 52.5785 154.569 54.8677C144.646 62.88 118.754 68.3077 90.1385 68.3815C52.2001 68.5292 21.3231 59.4831 21.2308 48.2585ZM90.0001 27.2492C51.5539 27.2492 20.7693 36.48 20.7693 48C20.7693 59.4831 51.8308 68.7508 90.0001 68.7508C128.169 68.7508 159.231 59.4462 159.231 48C159.231 36.5539 128.169 27.2492 90.0001 27.2492Z" fill="#4F4C4D"/>
<path d="M21 48C21 48.5538 21.0923 49.0708 21.2308 49.6246C21.1385 49.1815 21.0462 48.7015 21.0462 48.2585C21.0462 45.7846 22.4308 43.3108 25.2462 41.0215C35.2154 32.9723 61.2 27.5446 89.8615 27.4708C93.8308 27.4708 97.7539 27.5446 101.538 27.7292C97.8 27.5446 93.9231 27.4338 90 27.4338C51.7385 27.4338 21 36.5908 21 48Z" fill="url(#paint24_linear_1076_48)"/>
<path d="M158.954 47.7785C158.954 50.2523 157.523 52.6892 154.661 54.9785C144.738 62.9908 118.754 68.4554 90.0923 68.5662C86.0307 68.5662 82.0615 68.4923 78.1846 68.3077C82.0153 68.4923 85.9384 68.6031 89.9538 68.6031C128.031 68.6031 158.954 59.2985 158.954 48C158.954 47.5569 158.908 47.1508 158.815 46.7077C158.954 47.0769 158.954 47.4462 158.954 47.7785Z" fill="url(#paint25_linear_1076_48)"/>
<path d="M24.6462 48C24.6462 58.0431 53.9078 66.2031 89.9539 66.2031C126.046 66.2031 155.262 58.0431 155.262 48C155.308 37.9569 126.092 29.8339 90.0001 29.8339C53.9078 29.8339 24.6462 37.9569 24.6462 48ZM26.9539 48C26.9539 38.8062 55.1539 31.3846 90.0001 31.3846C124.8 31.3846 153.046 38.8062 153.046 48C153.046 57.1939 124.846 64.6154 90.0001 64.6154C55.2001 64.6154 26.9539 57.1939 26.9539 48Z" fill="url(#paint26_linear_1076_48)"/>
<path d="M126.969 41.8338C126.692 41.8338 126.6 41.8708 126.462 42.0554C126.046 42.6831 121.154 48.5169 120.277 49.6615C120.139 49.8461 119.954 49.8092 119.908 49.6246C119.816 48.96 119.077 48.1846 117.923 47.8154C117.046 47.52 116.169 47.4831 115.292 47.5569C113.677 47.7415 112.246 48.4061 111 49.1815C109.108 50.3261 107.446 51.84 105.369 52.9477C104.216 53.5384 102.646 54.0923 101.585 53.28C100.616 52.5784 100.754 50.9908 102.185 49.7723C102.323 49.6615 102.508 49.7354 102.508 49.8831C102.369 50.4369 102.554 50.9908 103.062 51.36C103.708 51.8031 104.631 51.8769 105.416 51.5815C106.339 51.2123 106.892 50.5108 107.031 49.6984C107.262 48.4431 106.062 47.3723 104.585 47.2615C103.385 47.1877 102.185 47.52 101.077 48.2954C100.523 48.6646 100.2 48.96 99.6924 49.5138C99.554 49.6615 99.3693 49.6615 99.4155 49.4769C99.4617 47.8892 98.6309 47.0031 97.0155 46.9661C95.7232 46.9292 94.3847 47.4831 93.3232 48.1846C92.1693 48.9231 91.154 49.92 90.0463 50.8431C89.9078 50.9538 89.7694 50.9538 89.7694 50.7323C89.7232 49.6615 89.4001 48.6646 88.8001 47.9261C88.5693 47.6677 88.1078 47.5569 87.7386 47.7046C87.554 47.7784 86.954 48 86.4924 48.2954C86.2617 48.4431 86.1693 48.6646 86.2617 48.9231C86.8617 50.5108 86.7232 52.2831 85.9386 53.7969C85.2001 55.2 83.7693 56.4184 82.1078 56.8615C81.0001 57.1569 79.8463 57.0092 79.154 56.2338C78.1847 55.1631 78.554 53.28 80.0309 51.6923C81.3232 50.3261 83.1693 49.44 85.0155 48.8861C85.2463 48.8123 85.2924 48.7015 85.2001 48.5538C85.1078 48.2954 84.9232 47.9631 84.877 47.8154C84.6924 47.4461 84.2309 47.4092 83.6309 47.4461C82.2924 47.5569 81.0924 47.9261 79.8463 48.4431C76.7078 49.7723 75.1386 52.3938 74.4463 53.7969C74.1232 54.4615 73.8463 54.8677 73.477 55.2369C72.9693 55.7538 72.3694 56.1969 71.2155 56.9723C71.1232 57.0461 71.0309 57.1938 71.1232 57.3415C71.2617 57.5261 71.8155 58.1908 72.0001 58.2646C72.1847 58.3384 72.4155 58.2277 72.5078 58.1908C73.2924 57.7477 74.2617 57.0831 74.7232 56.6031C74.8617 56.4554 75.0463 56.5292 75.1386 56.7508C75.554 58.0061 76.7078 59.0031 78.277 59.4461C81.1386 60.2215 84.1386 59.1138 86.4001 57.1569C87.8309 55.9015 88.3386 55.1261 88.8924 54.5723C89.8155 53.6492 91.6617 51.5815 93.8309 50.2523C94.6155 49.7723 95.5847 49.4031 96.0463 49.6246C96.4155 49.8092 96.554 50.2892 95.954 51.1754C93.7386 54.4246 90.4617 58.2646 89.8617 59.1877C89.7694 59.3354 89.8617 59.4831 90.0463 59.4831H93.4155C93.6001 59.4831 93.6924 59.4092 93.7386 59.2984C95.4463 57.1569 97.0617 55.1261 98.7694 53.0215C98.8617 52.9108 98.954 52.9846 98.954 53.0584C99.0001 53.5384 99.1386 54.2031 99.5078 54.6461C100.154 55.4584 101.077 55.7908 102.092 55.8277C102.923 55.8277 103.339 55.7538 104.216 55.4584C104.954 55.2369 105.508 54.9784 105.969 54.72C106.246 54.5723 106.292 54.8308 106.246 54.8677C105.831 56.5661 106.339 58.5969 108.462 59.4092C111 60.4061 113.769 59.0031 115.385 57.7477C115.523 57.6369 115.708 57.6369 115.708 57.8954C115.754 58.3754 116.031 58.9661 116.492 59.3723C117.831 60.4431 120.554 60.0369 123.231 58.3384C124.985 57.2677 126.785 55.7538 128.446 54.1292C128.492 54.0554 128.539 53.9815 128.446 53.8708C128.216 53.6492 127.846 53.4277 127.569 53.2431C127.477 53.1692 127.292 53.2061 127.2 53.2431C125.492 54.5354 124.016 55.9754 121.8 57.1938C121.062 57.6 119.862 57.9323 119.354 57.3784C119.169 57.1569 119.169 56.8615 119.354 56.4554C120 55.1631 130.154 42.8308 130.662 42.0923C130.754 41.9815 130.662 41.8708 130.477 41.8708C129.416 41.8338 128.031 41.8338 126.969 41.8338ZM110.908 57.0092C110.4 56.7877 110.169 56.1969 110.169 55.7538C110.216 54.4246 110.954 53.0584 112.292 51.7292C113.954 50.1046 115.8 49.2554 117 49.6984C118.246 50.1784 117.831 51.3231 117.277 52.2461C117.231 52.32 117.231 52.3938 117.277 52.4308C117.277 52.5415 117.462 52.6154 117.6 52.6523C117.646 52.6523 117.692 52.6892 117.646 52.8C117.231 53.5384 116.816 53.9815 116.262 54.6092C115.754 55.2 115.2 55.68 114.508 56.1231C113.723 56.64 112.708 57.1938 111.739 57.1938C111.462 57.1938 111.139 57.12 110.908 57.0092Z" fill="url(#paint27_linear_1076_48)"/>
<path d="M73.0614 34.3384C72.0922 34.3384 71.123 34.3754 70.1538 34.4492C63.923 34.8554 58.0153 37.6615 57.9691 41.9446C57.9691 44.1231 59.9076 45.8584 62.8614 45.7846C66.3691 45.6738 69.2307 43.4584 70.7538 40.6154C71.3076 39.5446 70.2461 39.1015 69.7845 39.7292C68.9076 40.8369 67.6153 41.6861 66.2768 42.24C64.6153 42.8677 62.8614 42.72 62.3538 41.6492C61.6153 40.1354 63.1845 37.8831 66.7384 36.8123C71.8614 35.2984 77.2614 36.2954 82.4307 37.0707C82.523 37.0707 82.7999 37.1815 82.523 37.2923C81.5999 37.6984 80.6768 38.0307 79.2461 38.9907C78.2307 39.6923 76.8922 40.6154 75.8768 41.6123C74.8614 42.6092 74.123 43.4954 73.1538 44.4923C73.0153 44.64 72.8768 44.64 72.8768 44.64C70.523 44.9723 68.2614 45.1569 66.1384 46.3384C65.723 46.56 65.5384 47.0031 65.7691 47.3354C65.9999 47.6307 66.5538 47.6677 66.923 47.4461C68.2153 46.6707 69.5538 46.3015 71.123 46.2646C71.1691 46.2646 71.2153 46.2646 71.2614 46.3015V46.3754C68.9538 48.9231 68.3999 49.5138 66.6461 51.1015C65.7691 51.9138 64.8922 52.6154 63.923 53.3169C59.9999 56.2338 55.7538 56.1969 54.2307 54.3507C53.3076 53.2431 53.4461 52.0984 54.0461 51.1384C54.7845 49.9569 56.2614 49.1077 57.5076 48.5907C57.9691 48.4061 58.1076 47.9261 57.6461 47.52C57.3691 47.2246 56.6307 47.1877 56.123 47.2615C54.5076 47.4831 52.6153 48.48 51.4614 49.6615C50.2153 50.9907 49.5691 52.5784 49.7537 54.3507C50.123 57.6 53.4461 59.4461 57.2307 59.4461C60.2307 59.4092 63.0922 58.7077 66.4614 55.9384C69.6461 53.3538 72.5538 49.5138 75.2307 45.9323C75.323 45.8215 75.3691 45.7477 75.7845 45.7107C77.4922 45.5261 79.9845 45.3415 81.5999 45.2677C81.9691 45.2677 82.0153 45.2677 82.1538 45.4154C82.5691 45.8215 83.2153 46.1907 83.723 46.4123C83.9538 46.5231 84.0922 46.56 84.2768 46.56C84.5076 46.56 84.6922 46.4492 84.8307 46.3384C85.0153 46.1907 85.0615 46.0061 84.9691 45.8584C84.8768 45.7107 83.7691 45.2307 83.723 45.0461C83.6768 44.9354 83.8614 44.8984 83.8614 44.8984C84.6922 44.6769 85.523 44.2707 86.0768 43.4584C86.5845 42.6831 86.6768 41.6123 85.7538 41.0584C84.923 40.5415 83.6768 40.6154 82.7076 41.3538C81.7384 42.0554 81.4153 43.0523 81.5538 43.9384C81.5538 44.0861 81.5538 44.16 81.323 44.16C79.8461 44.2707 78.4153 44.2707 76.7999 44.3446C76.7076 44.3446 76.6614 44.3077 76.7076 44.2338C78.5538 41.6861 81.2768 39.8769 84.323 38.0677C84.5076 37.9569 84.4614 37.7354 84.4614 37.5138C89.9538 38.4738 95.2153 40.2461 100.892 40.2092C103.246 40.2092 105.508 39.9138 107.631 38.9538C109.523 38.1415 110.308 37.3661 110.354 36.5907C110.4 36.0369 109.938 35.7046 109.246 35.8154C103.523 36.8861 98.0307 36.8492 92.3076 36.2954C85.7538 35.6307 79.523 34.3384 73.0614 34.3384ZM82.9384 43.5323C82.8461 43.0523 83.0307 42.3877 83.723 41.9446C84.0461 41.7231 84.5076 41.6492 84.7384 41.8338C85.0615 42.0554 84.8768 42.5723 84.5999 42.9046C84.2768 43.3107 83.6768 43.6431 83.1691 43.7169H83.123C83.0768 43.7538 82.9845 43.7169 82.9384 43.5323Z" fill="url(#paint28_linear_1076_48)"/>
<defs>
<radialGradient id="paint0_radial_1076_48" cx="0" cy="0" r="1" gradientUnits="userSpaceOnUse" gradientTransform="translate(89.4001 256.397) scale(298.918 233.181)">
<stop stop-color="#00050D"/>
<stop offset="0.7" stop-color="#051125"/>
<stop offset="0.904" stop-color="#173E7E"/>
<stop offset="0.955" stop-color="#4CA9E3"/>
<stop offset="1" stop-color="#4CA9E3"/>
</radialGradient>
<linearGradient id="paint1_linear_1076_48" x1="89.8804" y1="69.2329" x2="89.8804" y2="27.0224" gradientUnits="userSpaceOnUse">
<stop stop-color="#08142E"/>
<stop offset="0.809" stop-color="#17326E"/>
<stop offset="1" stop-color="#0D69A9"/>
</linearGradient>
<linearGradient id="paint2_linear_1076_48" x1="90.7137" y1="69.2545" x2="90.7137" y2="27.0401" gradientUnits="userSpaceOnUse">
<stop stop-color="#08142E"/>
<stop offset="0.809" stop-color="#17326E"/>
<stop offset="1" stop-color="#0D69A9"/>
</linearGradient>
<linearGradient id="paint3_linear_1076_48" x1="101.818" y1="61.9821" x2="101.818" y2="32.7353" gradientUnits="userSpaceOnUse">
<stop stop-color="#08142E"/>
<stop offset="0.809" stop-color="#17326E"/>
<stop offset="1" stop-color="#0D69A9"/>
</linearGradient>
<linearGradient id="paint4_linear_1076_48" x1="117.438" y1="62.1016" x2="117.438" y2="32.4651" gradientUnits="userSpaceOnUse">
<stop stop-color="#08142E"/>
<stop offset="0.809" stop-color="#17326E"/>
<stop offset="1" stop-color="#0D69A9"/>
</linearGradient>
<linearGradient id="paint5_linear_1076_48" x1="39894.3" y1="60.9408" x2="39894.3" y2="33.7921" gradientUnits="userSpaceOnUse">
<stop stop-color="#08142E"/>
<stop offset="0.809" stop-color="#17326E"/>
<stop offset="1" stop-color="#0D69A9"/>
</linearGradient>
<linearGradient id="paint6_linear_1076_48" x1="99.3036" y1="61.3349" x2="99.3036" y2="33.2719" gradientUnits="userSpaceOnUse">
<stop stop-color="#08142E"/>
<stop offset="0.809" stop-color="#17326E"/>
<stop offset="1" stop-color="#0D69A9"/>
</linearGradient>
<linearGradient id="paint7_linear_1076_48" x1="113.964" y1="62.0975" x2="113.964" y2="32.5087" gradientUnits="userSpaceOnUse">
<stop stop-color="#08142E"/>
<stop offset="0.809" stop-color="#17326E"/>
<stop offset="1" stop-color="#0D69A9"/>
</linearGradient>
<linearGradient id="paint8_linear_1076_48" x1="81.967" y1="62.0695" x2="81.967" y2="32.4869" gradientUnits="userSpaceOnUse">
<stop stop-color="#08142E"/>
<stop offset="0.809" stop-color="#17326E"/>
<stop offset="1" stop-color="#0D69A9"/>
</linearGradient>
<linearGradient id="paint9_linear_1076_48" x1="43203.2" y1="62.0648" x2="43203.2" y2="32.6845" gradientUnits="userSpaceOnUse">
<stop stop-color="#08142E"/>
<stop offset="0.809" stop-color="#17326E"/>
<stop offset="1" stop-color="#0D69A9"/>
</linearGradient>
<linearGradient id="paint10_linear_1076_48" x1="117.518" y1="62.0999" x2="117.518" y2="32.5043" gradientUnits="userSpaceOnUse">
<stop stop-color="#08142E"/>
<stop offset="0.809" stop-color="#17326E"/>
<stop offset="1" stop-color="#0D69A9"/>
</linearGradient>
<linearGradient id="paint11_linear_1076_48" x1="104.988" y1="62.1079" x2="104.988" y2="32.4935" gradientUnits="userSpaceOnUse">
<stop stop-color="#08142E"/>
<stop offset="0.809" stop-color="#17326E"/>
<stop offset="1" stop-color="#0D69A9"/>
</linearGradient>
<linearGradient id="paint12_linear_1076_48" x1="125.176" y1="62.0728" x2="125.176" y2="32.4844" gradientUnits="userSpaceOnUse">
<stop stop-color="#08142E"/>
<stop offset="0.809" stop-color="#17326E"/>
<stop offset="1" stop-color="#0D69A9"/>
</linearGradient>
<linearGradient id="paint13_linear_1076_48" x1="89.4103" y1="61.7715" x2="89.4103" y2="32.866" gradientUnits="userSpaceOnUse">
<stop stop-color="#08142E"/>
<stop offset="0.809" stop-color="#17326E"/>
<stop offset="1" stop-color="#0D69A9"/>
</linearGradient>
<linearGradient id="paint14_linear_1076_48" x1="83.6667" y1="62.0869" x2="83.6667" y2="32.6975" gradientUnits="userSpaceOnUse">
<stop stop-color="#08142E"/>
<stop offset="0.809" stop-color="#17326E"/>
<stop offset="1" stop-color="#0D69A9"/>
</linearGradient>
<linearGradient id="paint15_linear_1076_48" x1="55.7714" y1="62.0652" x2="55.7714" y2="32.4782" gradientUnits="userSpaceOnUse">
<stop stop-color="#08142E"/>
<stop offset="0.809" stop-color="#17326E"/>
<stop offset="1" stop-color="#0D69A9"/>
</linearGradient>
<linearGradient id="paint16_linear_1076_48" x1="72.3064" y1="62.1002" x2="72.3064" y2="32.5194" gradientUnits="userSpaceOnUse">
<stop stop-color="#08142E"/>
<stop offset="0.809" stop-color="#17326E"/>
<stop offset="1" stop-color="#0D69A9"/>
</linearGradient>
<linearGradient id="paint17_linear_1076_48" x1="67.511" y1="62.0785" x2="67.511" y2="32.4904" gradientUnits="userSpaceOnUse">
<stop stop-color="#08142E"/>
<stop offset="0.809" stop-color="#17326E"/>
<stop offset="1" stop-color="#0D69A9"/>
</linearGradient>
<linearGradient id="paint18_linear_1076_48" x1="68.3817" y1="62.0968" x2="68.3817" y2="32.4939" gradientUnits="userSpaceOnUse">
<stop stop-color="#08142E"/>
<stop offset="0.809" stop-color="#17326E"/>
<stop offset="1" stop-color="#0D69A9"/>
</linearGradient>
<linearGradient id="paint19_linear_1076_48" x1="110.1" y1="61.3452" x2="110.1" y2="32.6184" gradientUnits="userSpaceOnUse">
<stop stop-color="#08142E"/>
<stop offset="0.809" stop-color="#17326E"/>
<stop offset="1" stop-color="#0D69A9"/>
</linearGradient>
<linearGradient id="paint20_linear_1076_48" x1="93.5565" y1="62.0835" x2="93.5565" y2="32.4987" gradientUnits="userSpaceOnUse">
<stop stop-color="#08142E"/>
<stop offset="0.809" stop-color="#17326E"/>
<stop offset="1" stop-color="#0D69A9"/>
</linearGradient>
<linearGradient id="paint21_linear_1076_48" x1="83.9588" y1="61.0822" x2="83.9588" y2="33.1312" gradientUnits="userSpaceOnUse">
<stop stop-color="#08142E"/>
<stop offset="0.809" stop-color="#17326E"/>
<stop offset="1" stop-color="#0D69A9"/>
</linearGradient>
<linearGradient id="paint22_linear_1076_48" x1="85.1395" y1="62.0844" x2="85.1395" y2="32.4964" gradientUnits="userSpaceOnUse">
<stop stop-color="#08142E"/>
<stop offset="0.809" stop-color="#17326E"/>
<stop offset="1" stop-color="#0D69A9"/>
</linearGradient>
<linearGradient id="paint23_linear_1076_48" x1="64.842" y1="62.0918" x2="64.842" y2="32.5027" gradientUnits="userSpaceOnUse">
<stop stop-color="#08142E"/>
<stop offset="0.809" stop-color="#17326E"/>
<stop offset="1" stop-color="#0D69A9"/>
</linearGradient>
<linearGradient id="paint24_linear_1076_48" x1="74.7825" y1="78.6344" x2="64.2922" y2="29.6963" gradientUnits="userSpaceOnUse">
<stop stop-color="#B2B1B1"/>
<stop offset="0.35" stop-color="#DEDDDE"/>
<stop offset="0.65" stop-color="#DEDDDE"/>
<stop offset="1" stop-color="#B2B1B1"/>
</linearGradient>
<linearGradient id="paint25_linear_1076_48" x1="116.87" y1="52.5763" x2="106.428" y2="3.86511" gradientUnits="userSpaceOnUse">
<stop stop-color="#B2B1B1"/>
<stop offset="0.35" stop-color="#DEDDDE"/>
<stop offset="0.65" stop-color="#DEDDDE"/>
<stop offset="1" stop-color="#B2B1B1"/>
</linearGradient>
<linearGradient id="paint26_linear_1076_48" x1="90.0056" y1="26.7385" x2="90.0056" y2="69.1666" gradientUnits="userSpaceOnUse">
<stop stop-color="white"/>
<stop offset="0.552" stop-color="white"/>
<stop offset="0.691" stop-color="#FAFAFA"/>
<stop offset="0.8" stop-color="#D3D2D2"/>
<stop offset="1" stop-color="#BDBCBC"/>
</linearGradient>
<linearGradient id="paint27_linear_1076_48" x1="100.856" y1="40.3235" x2="100.856" y2="61.3653" gradientUnits="userSpaceOnUse">
<stop stop-color="white"/>
<stop offset="0.552" stop-color="white"/>
<stop offset="0.691" stop-color="#EFEEEE"/>
<stop offset="0.8" stop-color="#E9E9E9"/>
<stop offset="1" stop-color="#D3D2D2"/>
</linearGradient>
<linearGradient id="paint28_linear_1076_48" x1="-44229.3" y1="32.2987" x2="-44229.3" y2="61.4875" gradientUnits="userSpaceOnUse">
<stop stop-color="white"/>
<stop offset="0.552" stop-color="white"/>
<stop offset="0.691" stop-color="#EFEEEE"/>
<stop offset="0.8" stop-color="#E9E9E9"/>
<stop offset="1" stop-color="#D3D2D2"/>
</linearGradient>
</defs>
</svg>
